<svg width="30" height="26" viewBox="0 0 30 26" fill="none" xmlns="http://www.w3.org/2000/svg">
<path fill-rule="evenodd" clip-rule="evenodd" d="M14.4946 22.7216C16.3283 24.7749 18.7912 26 20.9419 26C24.6159 26 28.841 23.9312 29.0247 17.7248C28.8538 11.601 22.1644 6.45377 15.7603 1.52608C15.2805 1.15693 14.8024 0.789017 14.3287 0.422017C14.3287 0.422038 14.3287 0.422057 14.3286 0.422078C14.3286 0.422059 14.3286 0.42204 14.3286 0.422021C14.0942 0.603615 13.8591 0.785433 13.6238 0.967515C7.03343 6.06558 0.177371 11.3692 6.49169e-06 17.7248C0.183705 23.9312 4.77619 26 8.45018 26C10.6009 26 12.8557 24.7749 14.4946 22.7216Z" fill="black"/>
</svg>
