<svg width="30" height="26" viewBox="0 0 30 26" fill="none" xmlns="http://www.w3.org/2000/svg">
<path fill-rule="evenodd" clip-rule="evenodd" d="M14.53 3.27849C12.6964 1.22519 10.2335 0.000124665 8.08277 0.000124664C4.40879 0.000124663 0.183699 2.06893 -8.96305e-08 8.27535C0.170897 14.3992 6.86026 19.5464 13.2644 24.474C13.7441 24.8432 14.2223 25.2111 14.696 25.5781C14.696 25.5781 14.696 25.5781 14.696 25.578C14.6961 25.5781 14.6961 25.5781 14.6961 25.5781C14.9305 25.3965 15.1655 25.2147 15.4009 25.0326C21.9912 19.9345 28.8473 14.6309 29.0247 8.27535C28.841 2.06893 24.2485 0.00012207 20.5745 0.00012207C18.4238 0.00012207 16.169 1.22519 14.53 3.27849Z" fill="#FF4545"/>
</svg>
