<svg width="25" height="25" viewBox="0 0 25 25" fill="none" xmlns="http://www.w3.org/2000/svg">
<path fill-rule="evenodd" clip-rule="evenodd" d="M13.3189 11.7767C14.4121 10.2172 16.118 6.88009 16.118 4.5052C16.118 1.85652 14.6708 0 12.5657 0C10.1976 0 8.88194 1.88928 8.88194 4.5052C8.88194 6.4076 10.5171 9.84721 11.6115 11.5821C10.0078 10.4322 6.59985 8.62089 4.77574 8.62089C2.336 8.62089 0.573975 10.0315 0.573975 12.5707C0.573975 14.8278 2.30545 16.3795 4.77574 16.3795C7.10192 16.3795 10.4924 14.3165 11.8711 13.1414L8.61407 24.9999C11.7182 23.8205 13.6891 23.7977 16.6541 24.9999L13.1494 13.1312C14.4342 14.2714 17.8464 16.3795 20.2243 16.3795C22.6946 16.3795 24.4261 14.8278 24.4261 12.5707C24.4261 10.0315 22.6641 8.62089 20.2243 8.62089C18.3302 8.62089 14.8022 10.619 13.3189 11.7767Z" fill="black"/>
</svg>
