<svg width="95" height="133" viewBox="0 0 95 133" fill="none" xmlns="http://www.w3.org/2000/svg">
<rect width="95" height="133" rx="4" fill="white"/>
<rect x="6" y="6" width="83" height="121" rx="4" fill="#C2F5FF"/>
<mask id="mask0_4325_407" style="mask-type:alpha" maskUnits="userSpaceOnUse" x="6" y="6" width="83" height="121">
<rect x="6" y="6" width="83" height="121" rx="4" fill="#E4FBFF"/>
</mask>
<g mask="url(#mask0_4325_407)">
<path fill-rule="evenodd" clip-rule="evenodd" d="M75.8103 59.406C62.6974 43.9948 42.6434 39.52 31.0183 49.4113L51.4643 73.4411C38.4891 61.0743 20.8037 58.1024 10.1704 67.1498L30.6088 91.1706C17.6344 78.8106 -0.0456412 75.8419 -10.6767 84.8874L36.8091 140.697C47.4402 131.651 47.3406 113.724 37.2175 98.9377L57.6562 122.959C68.2895 113.912 68.1877 95.9784 58.058 81.1906L78.5041 105.22C90.1292 95.3291 88.9231 74.8173 75.8103 59.406Z" fill="#A1EDFF"/>
<mask id="mask1_4325_407" style="mask-type:alpha" maskUnits="userSpaceOnUse" x="-11" y="44" width="98" height="97">
<path fill-rule="evenodd" clip-rule="evenodd" d="M75.8103 59.4061C62.6974 43.9948 42.6434 39.52 31.0183 49.4114L51.4643 73.4411C38.4891 61.0744 20.8037 58.1024 10.1704 67.1499L30.6088 91.1707C17.6344 78.8106 -0.0456412 75.8419 -10.6767 84.8874L36.8091 140.697C47.4402 131.651 47.3406 113.724 37.2175 98.9378L57.6562 122.959C68.2895 113.912 68.1877 95.9785 58.058 81.1907L78.5041 105.221C90.1292 95.3292 88.9231 74.8174 75.8103 59.4061Z" fill="#271A58"/>
</mask>
<g mask="url(#mask1_4325_407)">
<circle cx="61.8614" cy="59.6419" r="25.0281" transform="rotate(-60.3933 61.8614 59.6419)" fill="#75E5FF"/>
</g>
</g>
</svg>
